<svg width="500" height="500" viewBox="0 0 500 500" fill="none" xmlns="http://www.w3.org/2000/svg">
<g clip-path="url(#clip0_10_101)">
<mask id="mask0_10_101" style="mask-type:luminance" maskUnits="userSpaceOnUse" x="0" y="0" width="500" height="500">
<path d="M500 250C500 111.929 388.071 0 250 0C111.929 0 0 111.929 0 250C0 388.071 111.929 500 250 500C388.071 500 500 388.071 500 250Z" fill="white"/>
</mask>
<g mask="url(#mask0_10_101)">
<path d="M324.4 131.727C292.363 131.727 267.787 142.649 248.672 164.495C229.557 186.34 220 212.964 220 244.367V351.887C220 362.127 214.88 367.247 204.64 367.247C194.4 367.247 189.28 362.127 189.28 351.887V244.367C189.28 213.988 196.96 186.681 212.32 162.447C227.68 138.212 247.307 121.145 271.2 111.247C220 102.372 172.213 97.9351 127.84 97.9351C117.6 97.9351 112.48 92.8151 112.48 82.5751C112.48 72.3351 117.6 67.2151 127.84 67.2151C180.747 67.2151 245.6 75.0655 322.4 90.7671C326.496 91.4495 330.08 93.8391 333.152 97.9351C336.224 101.689 337.76 106.127 337.76 111.247C337.76 116.367 336.053 121.145 332.64 125.583C329.227 129.679 325.813 131.727 322.4 131.727Z" fill="#DFD2A6"/>
<path d="M259.02 485.024C249.873 483.9 245.415 478.192 245.646 467.904C246.116 450.08 244.712 408.296 241.436 342.554C238.456 277.191 237.82 237.565 239.525 223.675C242.686 197.927 257.272 178.568 283.281 165.599C309.29 152.629 337.202 147.974 367.015 151.635C389.375 154.381 406.88 163.064 419.528 177.685C432.176 192.306 437.168 210.458 434.508 232.14C432.928 245.014 427.744 256.414 418.96 266.34C410.512 276.308 400.836 283.717 389.922 288.567C366.575 299.457 347.618 304.007 333.05 302.218C322.886 300.97 318.429 295.264 319.677 285.101C320.8 275.953 326.485 271.665 336.732 272.235C347.359 272.509 360.729 268.648 376.842 260.653C393.294 252.7 402.332 242.117 403.952 228.905C405.616 215.353 402.8 204.69 395.501 196.916C388.244 188.803 375.806 183.665 358.189 181.502C340.911 179.381 322.331 182.258 302.45 190.133C282.907 198.051 272.179 209.802 270.266 225.386C268.352 240.97 269.435 290.968 273.514 375.38L283.222 342.526C286.164 332.571 291.87 328.113 300.34 329.153C310.504 330.401 314.962 336.106 313.714 346.27C313.506 347.964 313.107 349.807 312.519 351.797L277.662 471.836C276.949 474.844 275.029 477.876 271.903 480.932C268.735 484.324 264.441 485.688 259.02 485.024Z" fill="#DFD2A6"/>
</g>
</g>
<defs>
<clipPath id="clip0_10_101">
<rect width="500" height="500" fill="white"/>
</clipPath>
</defs>
</svg>
