<svg width="80" height="104" viewBox="0 0 80 104" fill="none" xmlns="http://www.w3.org/2000/svg">
<path d="M52.0374 15.992C44.5915 15.992 38.4993 18.6996 33.7609 24.1149C29.0225 29.5302 26.6533 36.13 26.6533 43.9145V70.5678C26.6533 73.1063 25.3841 74.3755 22.8457 74.3755C20.3073 74.3755 19.0381 73.1063 19.0381 70.5678V43.9145C19.0381 36.3839 20.9419 29.6147 24.7495 23.6072C28.5571 17.5996 33.4225 13.3689 39.3454 10.9152C26.6533 8.71518 14.8074 7.61524 3.80762 7.61524C1.2692 7.61524 0 6.34603 0 3.80762C0 1.26921 1.2692 0 3.80762 0C16.9228 0 32.9993 1.94605 52.0374 5.83835C53.0528 6.00751 53.9413 6.59987 54.7028 7.61524C55.4643 8.54592 55.8451 9.64596 55.8451 10.9152C55.8451 12.1844 55.422 13.3689 54.5759 14.4689C53.7298 15.4843 52.8835 15.992 52.0374 15.992Z" fill="#EBBCBA"/>
<path d="M36.3262 103.571C34.0587 103.292 32.9536 101.877 33.011 99.327C33.1273 94.9086 32.7794 84.5507 31.9672 68.2538C31.2286 52.051 31.0708 42.2279 31.4936 38.7847C32.2772 32.402 35.8929 27.6031 42.3403 24.3881C48.7877 21.1729 55.7068 20.0191 63.0972 20.9266C68.6401 21.6072 72.9795 23.7597 76.1148 27.3841C79.2501 31.0086 80.4876 35.5083 79.8282 40.8832C79.4366 44.0745 78.1515 46.9005 75.974 49.3611C73.8798 51.8321 71.4812 53.6686 68.7756 54.871C62.9882 57.5704 58.2889 58.6984 54.6777 58.2549C52.1582 57.9456 51.0531 56.5311 51.3625 54.0116C51.6408 51.7441 53.0502 50.681 55.5903 50.8224C58.2247 50.8902 61.5391 49.9331 65.5333 47.9513C69.6116 45.9798 71.8521 43.3564 72.2536 40.0811C72.6661 36.7218 71.9681 34.0785 70.1587 32.1514C68.3597 30.1402 65.2766 28.8666 60.9094 28.3303C56.6263 27.8045 52.0205 28.5177 47.0921 30.47C42.2476 32.4326 39.5882 35.3457 39.1139 39.2088C38.6396 43.0721 38.908 55.4662 39.9192 76.3911L42.3258 68.247C43.0551 65.779 44.4695 64.6739 46.5691 64.9318C49.0886 65.2411 50.1937 66.6555 49.8843 69.175C49.8327 69.5949 49.734 70.0517 49.5881 70.5452L40.9474 100.302C40.7706 101.047 40.2947 101.799 39.5197 102.557C38.7345 103.397 37.67 103.736 36.3262 103.571Z" fill="#EBBCBA"/>
</svg>
